<svg xmlns="http://www.w3.org/2000/svg" xmlns:xlink="http://www.w3.org/1999/xlink" width="200" height="42" viewBox="0 0 200 42">
    <defs>
        <path id="prefix__a" d="M0 11.4L199 11.4 199 0.22 0 0.22z"/>
    </defs>
    <g fill="none" fill-rule="evenodd">
        <g fill="#FFF">
            <path d="M0 .914h15.554c4.036 0 7.133 2.808 7.133 6.485 0 2.808-1.288 4.784-3.862 6.067C21.539 14.473 23 16.553 23 19.36c0 3.643-2.992 6.554-6.75 6.554H0v-25zM5.776 11.63l7.898-.035c1.462 0 2.576-1.283 2.576-2.912 0-1.803-1.253-3.26-2.854-3.26h-7.62v6.207zm0 9.778h8.211c1.392 0 2.576-1.18 2.576-2.636 0-1.628-1.253-2.982-2.784-2.982H5.776v5.618zM33.194 3.338S34.168.914 37.355.914c2.913 0 3.951 2.435 3.951 2.435L51 25.914h-6.265l-2.077-5.68H32.412l-2.25 5.68H24l9.194-22.576zm.879 12.533h6.681l-3.392-8.728-3.29 8.728zM74 .914h18.127c3.97 0 7.182 3.433 7.182 7.629 0 3.71-2.349 6.483-6.215 7.317L100 25.914h-6.975l-6.422-9.605h-6.872v9.605H74v-25zm5.731 11.408h7.735c2.59 0 4.627-1.63 4.627-3.606 0-2.045-1.83-3.293-4.765-3.293h-7.597v6.899zM115.705-.086C125.046-.086 129 3.904 129 13.43c0 8.427-4.398 12.485-13.432 12.485-9.17 0-13.568-4.265-13.568-13.173 0-8.39 4.773-12.827 13.705-12.827m-7.535 12.827v.139c0 5.949 2.32 8.632 7.433 8.632 4.909 0 7.159-2.683 7.159-8.564 0-5.537-2.625-8.667-7.227-8.667-4.637 0-7.296 3.061-7.365 8.46M144.298 25.914c-3.912 0-6.375-.59-8.296-2.045-1.18-.903-2.227-2.532-2.698-4.162-.204-.797-.304-1.803-.304-2.912V.915h5.597v15.672c0 .556 0 .902.07 1.144.168.66.573 1.422 1.111 2.011 1.148 1.214 2.632 1.665 5.466 1.665H153v4.507h-8.702zM45 .914h6.565l5.29 7.654s.56.837 1.592.837c.959 0 1.485-.826 1.485-.826L65.346.915H72L61.302 15.42v10.494h-5.727V15.45L45 .914z" transform="translate(45 .086)"/>
        </g>
        <g>
            <path fill="#FFF" d="M6.495 3.463L3.954 8.352 1.389 3.463 0 3.463 3.319 9.479 2.073 11.78 3.391 11.78 7.741 3.463z" transform="translate(0 30)"/>
            <g transform="translate(0 30) translate(0 .38)">
                <path fill="#FFF" d="M11.996 8.511c-1.64 0-2.516-1.055-2.516-2.42 0-1.367.876-2.42 2.516-2.42 1.642 0 2.517 1.053 2.517 2.42 0 1.365-.875 2.42-2.517 2.42m0-5.656c-2.516 0-3.762 1.282-3.762 3.235 0 2.061 1.318 3.235 3.762 3.235 2.446 0 3.763-1.174 3.763-3.235 0-2.06-1.317-3.235-3.763-3.235M24.198 3.083h-1.174v2.84c0 1.905-1.27 2.589-2.386 2.589-1.126 0-1.928-.73-1.928-2.074V3.083h-1.175v3.415c0 1.882 1.222 2.828 2.912 2.828 1.078 0 1.941-.37 2.624-1.293h.024c0 .419.024.766.049 1.066h1.102c-.025-.48-.048-.91-.048-1.367v-4.65zM27.53 4.282h-.024c0-.408-.024-.838-.049-1.199h-1.102c.026.48.048.911.048 1.366v4.65h1.175V6.187c0-1.21.779-2.205 2.192-2.205.216 0 .385.012.564.07V3h-.396c-1.342 0-1.868.312-2.408 1.283M39.634 8.512c-1.39 0-2.373-.898-2.373-2.422 0-1.521.983-2.418 2.373-2.418 1.403 0 2.373.897 2.373 2.418 0 1.524-.97 2.422-2.373 2.422m.263-5.658c-1.067 0-2.025.386-2.636 1.08 0-.347-.022-.623-.048-.852H36.04c.023.481.047.913.047 1.367v6.95h1.174V8.307c.744.791 1.678 1.018 2.636 1.018 1.798 0 3.356-1.281 3.356-3.235 0-1.952-1.558-3.236-3.356-3.236M48.36 8.511c-1.643 0-2.517-1.055-2.517-2.42 0-1.367.874-2.42 2.516-2.42s2.517 1.053 2.517 2.42c0 1.365-.875 2.42-2.517 2.42m0-5.656c-2.516 0-3.763 1.282-3.763 3.235 0 2.061 1.319 3.235 3.763 3.235 2.445 0 3.763-1.174 3.763-3.235 0-2.06-1.318-3.235-3.763-3.235M57.228 8.511c-1.641 0-2.515-1.055-2.515-2.42 0-1.367.874-2.42 2.515-2.42 1.643 0 2.517 1.053 2.517 2.42 0 1.365-.874 2.42-2.517 2.42m0-5.656c-2.515 0-3.763 1.282-3.763 3.235 0 2.061 1.319 3.235 3.763 3.235 2.445 0 3.763-1.174 3.763-3.235 0-2.06-1.318-3.235-3.763-3.235"/>
                <mask id="prefix__b" fill="#fff">
                    <use xlink:href="#prefix__a"/>
                </mask>
                <path fill="#FFF" d="M62.849 9.098L64.025 9.098 64.025.447 62.849.447zM73.217 8.44c-1.462 0-2.385-.756-2.385-1.75 0-.78.694-1.461 2.147-1.94l3.017 2.552c-.598.55-1.509 1.138-2.78 1.138m-1.078-6.267c0-.73.648-1.138 1.247-1.138.598 0 1.245.408 1.245 1.138 0 .574-.49 1.137-1.365 1.498-.611-.42-1.127-.924-1.127-1.498m6.796 1.437h-1.176c-.084.995-.407 1.977-1.053 2.84l-2.673-2.157c1.102-.527 1.653-1.259 1.653-2.18 0-.935-.778-1.893-2.325-1.893-1.617 0-2.395.958-2.395 1.953 0 .694.37 1.306 1.186 1.88-1.942.67-2.564 1.558-2.564 2.686 0 1.557 1.473 2.588 3.63 2.588 1.619 0 2.733-.6 3.56-1.355L78.118 9.1h1.858l-2.421-1.954c.935-1.15 1.234-2.191 1.379-3.535M88.737 5.805l-1.99-.373c-.898-.168-1.281-.432-1.281-.85 0-.552.742-.912 1.798-.912.898 0 1.569.217 1.737.97h1.138c-.072-1.473-1.677-1.784-2.924-1.784-1.666 0-2.923.552-2.923 1.88 0 2.397 4.864 1.33 4.864 2.733 0 .636-.645 1.043-1.964 1.043-1.067 0-1.833-.29-1.943-1.127h-1.245c.083 1.403 1.45 1.941 3.057 1.941 2.275 0 3.342-.66 3.342-1.94 0-.899-.54-1.368-1.666-1.581M95.054 8.512c-1.39 0-2.373-.898-2.373-2.422 0-1.521.983-2.418 2.373-2.418 1.403 0 2.37.897 2.37 2.418 0 1.524-.967 2.422-2.37 2.422m.262-5.658c-1.067 0-2.025.386-2.635 1.08 0-.347-.024-.623-.049-.852H91.46c.022.481.047.913.047 1.367v6.95h1.174V8.307c.743.791 1.678 1.018 2.635 1.018 1.8 0 3.356-1.281 3.356-3.235 0-1.952-1.557-3.236-3.356-3.236M105.157 6.438c0 1.45-.815 2.073-2.264 2.073-1.14 0-1.63-.586-1.63-1.186 0-.875.802-1.078 2.024-1.126.899-.036 1.476-.036 1.87-.036v.275zm1.174-1.45c0-1.497-1.222-2.133-2.887-2.133-1.307 0-2.852.371-2.997 1.798h1.247c.059-.659.754-.981 1.582-.981 1.16 0 1.88.358 1.88 1.509v.167c-.55 0-1.161 0-2.049.024-2.132.06-3.092.718-3.092 1.99 0 1.125 1.044 1.963 2.565 1.963 1.175 0 1.942-.167 2.624-1.065h.024c0 .276.013.563.049.84h1.101a10.806 10.806 0 01-.047-1.152v-2.96zM121.527 8.116L119.179 3.083 117.692 3.083 115.403 8.044 113.247 3.083 111.893 3.083 114.614 9.099 116.051 9.099 118.365 4.066 120.725 9.099 122.246 9.099 124.93 3.083 123.719 3.083zM130.734 6.438c0 1.45-.815 2.073-2.264 2.073-1.14 0-1.632-.586-1.632-1.186 0-.875.804-1.078 2.025-1.126.9-.036 1.475-.036 1.871-.036v.275zm1.173-1.45c0-1.497-1.221-2.133-2.886-2.133-1.308 0-2.852.371-2.997 1.798h1.248c.058-.659.753-.981 1.58-.981 1.163 0 1.882.358 1.882 1.509v.167c-.55 0-1.162 0-2.05.024-2.132.06-3.091.718-3.091 1.99 0 1.125 1.043 1.963 2.564 1.963 1.174 0 1.942-.167 2.623-1.065h.026c0 .276.012.563.048.84h1.101a10.949 10.949 0 01-.048-1.152v-2.96zM135.995 7.362V3.897h1.773v-.813h-1.773V1.489l-1.174.491v1.104h-1.57v.813h1.57v3.549c0 1.341.67 1.725 1.857 1.725.36 0 .743-.024 1.127-.072v-.815a7.176 7.176 0 01-.899.073c-.73 0-.911-.35-.911-.995M140.034 5.587c.179-1.329 1.042-1.916 2.253-1.916 1.03 0 2.06.526 2.085 1.916h-4.338zm2.277-2.732c-2.18 0-3.5 1.163-3.5 3.356 0 1.905 1.26 3.115 3.464 3.115 1.33 0 2.96-.43 3.198-2.036h-1.245c-.264.861-1.163 1.222-2.013 1.222-1.319 0-2.11-.875-2.23-2.11h5.632v-.358c0-2.038-1.173-3.189-3.306-3.189zM148.436 4.282h-.025c0-.408-.024-.838-.047-1.199h-1.103c.025.48.048.911.048 1.366v4.65h1.174V6.187c0-1.21.78-2.205 2.193-2.205.216 0 .383.012.564.07V3h-.396c-1.342 0-1.87.312-2.408 1.283M157.773 5.587c.179-1.329 1.04-1.916 2.252-1.916 1.03 0 2.06.526 2.085 1.916h-4.337zm2.277-2.732c-2.181 0-3.5 1.163-3.5 3.356 0 1.905 1.258 3.115 3.463 3.115 1.33 0 2.96-.43 3.198-2.036h-1.245c-.263.861-1.163 1.222-2.012 1.222-1.319 0-2.11-.875-2.23-2.11h5.631v-.358c0-2.038-1.173-3.189-3.305-3.189zM171.566 3.083L170.067 3.083 167.959 5.3 165.862 3.083 164.255 3.083 167.06 5.96 164.064 9.098 165.598 9.098 167.851 6.643 170.128 9.098 171.805 9.098 168.701 5.96zM176.505 8.512c-1.39 0-2.374-.898-2.374-2.422 0-1.521.985-2.418 2.374-2.418 1.402 0 2.371.897 2.371 2.418 0 1.524-.97 2.422-2.37 2.422m.262-5.658c-1.067 0-2.025.386-2.637 1.08a7.75 7.75 0 00-.047-.852h-1.174c.022.481.049.913.049 1.367v6.95h1.172V8.307c.744.791 1.678 1.018 2.637 1.018 1.798 0 3.356-1.281 3.356-3.235 0-1.952-1.558-3.236-3.356-3.236M182.606 5.587c.179-1.329 1.04-1.916 2.251-1.916 1.032 0 2.061.526 2.086 1.916h-4.337zm2.275-2.732c-2.181 0-3.498 1.163-3.498 3.356 0 1.905 1.258 3.115 3.462 3.115 1.33 0 2.96-.43 3.2-2.036h-1.247c-.263.861-1.161 1.222-2.012 1.222-1.318 0-2.11-.875-2.229-2.11h5.631v-.358c0-2.038-1.173-3.189-3.307-3.189zM191.006 4.282h-.024c0-.408-.023-.838-.047-1.199h-1.103c.024.48.048.911.048 1.366v4.65h1.175V6.187c0-1.21.778-2.205 2.192-2.205.216 0 .383.012.564.07V3h-.397c-1.341 0-1.869.312-2.408 1.283M198.101 8.357c-.73 0-.91-.35-.91-.995V3.897h1.773v-.813h-1.774V1.489l-1.174.491v1.104h-1.57v.813h1.57v3.548c0 1.342.672 1.725 1.857 1.725.36 0 .744-.024 1.126-.071v-.815a7.142 7.142 0 01-.898.073" mask="url(#prefix__b)"/>
            </g>
        </g>
        <g fill="#FFF">
            <path d="M7 .914l5.375 7.211s.568.79 1.617.79c.973 0 1.508-.779 1.508-.779L21 .916 7 .913zM0-.086v18.831c0 3.408 2.788 6.17 6.226 6.17H11V14.36L0-.086zM16 14.34v10.574h4.855c3.394 0 6.145-2.76 6.145-6.165V-.086L16 14.34z" transform="translate(0 .086)"/>
        </g>
    </g>
</svg>
